<svg width="133" height="25" viewBox="0 0 133 25" fill="none" xmlns="http://www.w3.org/2000/svg">
<path d="M11.3084 25H3.17347L11.3084 12.6984H19.4434L11.3084 25Z" fill="#918BE4"/>
<path d="M8.33336 0H16.6667L8.33336 12.6984H0L8.33336 0Z" fill="#918BE4"/>
<path d="M27.1522 20V5.58824H33.3904C34.6806 5.58824 35.7924 5.80098 36.7257 6.22647C37.659 6.63824 38.3796 7.23529 38.8875 8.01765C39.3953 8.8 39.6492 9.73333 39.6492 10.8176C39.6492 11.8882 39.3953 12.8147 38.8875 13.5971C38.3796 14.3794 37.659 14.9833 36.7257 15.4088C35.7924 15.8206 34.6806 16.0265 33.3904 16.0265H29.0051L30.4875 14.5235V20H27.1522ZM30.4875 14.8941L29.0051 13.3088H33.2051C34.2345 13.3088 35.0032 13.0892 35.511 12.65C36.0188 12.2108 36.2728 11.6 36.2728 10.8176C36.2728 10.0216 36.0188 9.40392 35.511 8.96471C35.0032 8.52549 34.2345 8.30588 33.2051 8.30588H29.0051L30.4875 6.72059V14.8941ZM41.7838 20V8.92353H44.8515V12.0529L44.4191 11.1471C44.7485 10.3647 45.277 9.77451 46.0044 9.37647C46.7319 8.96471 47.6172 8.75882 48.6603 8.75882V11.7235C48.523 11.7098 48.3995 11.7029 48.2897 11.7029C48.1799 11.6892 48.0632 11.6824 47.9397 11.6824C47.0613 11.6824 46.3475 11.9363 45.7985 12.4441C45.2632 12.9382 44.9956 13.7137 44.9956 14.7706V20H41.7838ZM55.7602 20.1647C54.5798 20.1647 53.5298 19.9176 52.6102 19.4235C51.7043 18.9294 50.9837 18.2569 50.4484 17.4059C49.9268 16.5412 49.6661 15.5598 49.6661 14.4618C49.6661 13.35 49.9268 12.3686 50.4484 11.5176C50.9837 10.6529 51.7043 9.98039 52.6102 9.5C53.5298 9.00588 54.5798 8.75882 55.7602 8.75882C56.9268 8.75882 57.97 9.00588 58.8896 9.5C59.8092 9.98039 60.5298 10.6461 61.0514 11.4971C61.5729 12.348 61.8337 13.3363 61.8337 14.4618C61.8337 15.5598 61.5729 16.5412 61.0514 17.4059C60.5298 18.2569 59.8092 18.9294 58.8896 19.4235C57.97 19.9176 56.9268 20.1647 55.7602 20.1647ZM55.7602 17.5294C56.2955 17.5294 56.7759 17.4059 57.2014 17.1588C57.6268 16.9118 57.9631 16.5618 58.2102 16.1088C58.4572 15.6422 58.5808 15.0931 58.5808 14.4618C58.5808 13.8167 58.4572 13.2676 58.2102 12.8147C57.9631 12.3618 57.6268 12.0118 57.2014 11.7647C56.7759 11.5176 56.2955 11.3941 55.7602 11.3941C55.2249 11.3941 54.7445 11.5176 54.319 11.7647C53.8935 12.0118 53.5504 12.3618 53.2896 12.8147C53.0425 13.2676 52.919 13.8167 52.919 14.4618C52.919 15.0931 53.0425 15.6422 53.2896 16.1088C53.5504 16.5618 53.8935 16.9118 54.319 17.1588C54.7445 17.4059 55.2249 17.5294 55.7602 17.5294ZM64.207 20V5.58824H70.4452C71.7354 5.58824 72.8472 5.80098 73.7805 6.22647C74.7138 6.63824 75.4344 7.23529 75.9423 8.01765C76.4501 8.8 76.704 9.73333 76.704 10.8176C76.704 11.8882 76.4501 12.8147 75.9423 13.5971C75.4344 14.3794 74.7138 14.9833 73.7805 15.4088C72.8472 15.8206 71.7354 16.0265 70.4452 16.0265H66.0599L67.5423 14.5235V20H64.207ZM67.5423 14.8941L66.0599 13.3088H70.2599C71.2893 13.3088 72.058 13.0892 72.5658 12.65C73.0737 12.2108 73.3276 11.6 73.3276 10.8176C73.3276 10.0216 73.0737 9.40392 72.5658 8.96471C72.058 8.52549 71.2893 8.30588 70.2599 8.30588H66.0599L67.5423 6.72059V14.8941ZM85.7921 8.75882C86.6706 8.75882 87.4529 8.93726 88.1392 9.29412C88.8392 9.63725 89.3882 10.1725 89.7863 10.9C90.1843 11.6137 90.3833 12.5333 90.3833 13.6588V20H87.1715V14.1529C87.1715 13.2608 86.9725 12.602 86.5745 12.1765C86.1902 11.751 85.6412 11.5382 84.9274 11.5382C84.4196 11.5382 83.9598 11.648 83.548 11.8676C83.15 12.0735 82.8343 12.3961 82.601 12.8353C82.3814 13.2745 82.2715 13.8373 82.2715 14.5235V20H79.0598V4.72353H82.2715V11.9912L81.551 11.0647C81.949 10.3235 82.5186 9.75392 83.2598 9.35588C84.001 8.95784 84.8451 8.75882 85.7921 8.75882ZM98.6456 20.1647C97.4652 20.1647 96.4152 19.9176 95.4956 19.4235C94.5897 18.9294 93.8692 18.2569 93.3339 17.4059C92.8123 16.5412 92.5515 15.5598 92.5515 14.4618C92.5515 13.35 92.8123 12.3686 93.3339 11.5176C93.8692 10.6529 94.5897 9.98039 95.4956 9.5C96.4152 9.00588 97.4652 8.75882 98.6456 8.75882C99.8123 8.75882 100.855 9.00588 101.775 9.5C102.695 9.98039 103.415 10.6461 103.937 11.4971C104.458 12.348 104.719 13.3363 104.719 14.4618C104.719 15.5598 104.458 16.5412 103.937 17.4059C103.415 18.2569 102.695 18.9294 101.775 19.4235C100.855 19.9176 99.8123 20.1647 98.6456 20.1647ZM98.6456 17.5294C99.1809 17.5294 99.6613 17.4059 100.087 17.1588C100.512 16.9118 100.849 16.5618 101.096 16.1088C101.343 15.6422 101.466 15.0931 101.466 14.4618C101.466 13.8167 101.343 13.2676 101.096 12.8147C100.849 12.3618 100.512 12.0118 100.087 11.7647C99.6613 11.5176 99.1809 11.3941 98.6456 11.3941C98.1103 11.3941 97.6299 11.5176 97.2044 11.7647C96.779 12.0118 96.4358 12.3618 96.175 12.8147C95.928 13.2676 95.8044 13.8167 95.8044 14.4618C95.8044 15.0931 95.928 15.6422 96.175 16.1088C96.4358 16.5618 96.779 16.9118 97.2044 17.1588C97.6299 17.4059 98.1103 17.5294 98.6456 17.5294ZM113.598 8.75882C114.477 8.75882 115.259 8.93726 115.945 9.29412C116.645 9.63725 117.194 10.1725 117.592 10.9C117.99 11.6137 118.189 12.5333 118.189 13.6588V20H114.978V14.1529C114.978 13.2608 114.779 12.602 114.381 12.1765C113.996 11.751 113.447 11.5382 112.734 11.5382C112.226 11.5382 111.766 11.648 111.354 11.8676C110.956 12.0735 110.64 12.3961 110.407 12.8353C110.188 13.2745 110.078 13.8373 110.078 14.5235V20H106.866V8.92353H109.934V11.9912L109.357 11.0647C109.755 10.3235 110.325 9.75392 111.066 9.35588C111.807 8.95784 112.651 8.75882 113.598 8.75882ZM126.678 20.1647C125.416 20.1647 124.304 19.9176 123.343 19.4235C122.396 18.9294 121.662 18.2569 121.14 17.4059C120.618 16.5412 120.358 15.5598 120.358 14.4618C120.358 13.35 120.612 12.3686 121.119 11.5176C121.641 10.6529 122.348 9.98039 123.24 9.5C124.132 9.00588 125.141 8.75882 126.267 8.75882C127.351 8.75882 128.325 8.99216 129.19 9.45882C130.068 9.91176 130.762 10.5706 131.269 11.4353C131.777 12.2863 132.031 13.3088 132.031 14.5029C132.031 14.6265 132.024 14.7706 132.011 14.9353C131.997 15.0863 131.983 15.2304 131.969 15.3676H122.972V13.4941H130.281L129.046 14.05C129.046 13.4735 128.929 12.9725 128.696 12.5471C128.463 12.1216 128.14 11.7922 127.728 11.5588C127.317 11.3118 126.836 11.1882 126.287 11.1882C125.738 11.1882 125.251 11.3118 124.825 11.5588C124.414 11.7922 124.091 12.1284 123.858 12.5676C123.624 12.9931 123.508 13.501 123.508 14.0912V14.5853C123.508 15.1892 123.638 15.7245 123.899 16.1912C124.173 16.6441 124.551 16.9941 125.031 17.2412C125.525 17.4745 126.102 17.5912 126.761 17.5912C127.351 17.5912 127.866 17.502 128.305 17.3235C128.758 17.1451 129.169 16.8775 129.54 16.5206L131.249 18.3735C130.741 18.95 130.103 19.3961 129.334 19.7118C128.566 20.0137 127.68 20.1647 126.678 20.1647Z" fill="#918BE4"/>
</svg>
