<svg width="14" height="14" viewBox="0 0 14 14" fill="none" xmlns="http://www.w3.org/2000/svg">
<path d="M13.3186 10.9258L13.9036 10.4026C13.9328 10.3762 13.9564 10.3439 13.9729 10.3078C13.9895 10.2717 13.9986 10.2325 13.9999 10.1927C14.0011 10.1528 13.9943 10.1131 13.98 10.076C13.9657 10.0389 13.9441 10.0052 13.9166 9.97699L7.1699 3.08718C7.1433 3.05957 7.11159 3.03764 7.07663 3.02268C7.04167 3.00771 7.00414 3 6.96624 3C6.92835 3 6.89083 3.00771 6.85586 3.02268C6.8209 3.03764 6.7892 3.05957 6.76259 3.08718L0.0852234 9.95482C0.031457 10.009 0.00082829 10.0828 1.6553e-05 10.1601C-0.000795184 10.2373 0.0282767 10.3117 0.080891 10.3671L0.596534 10.8992C0.649532 10.9542 0.72164 10.9855 0.797132 10.9864C0.872623 10.9872 0.945373 10.9574 0.999515 10.9036L6.79725 5.03353C6.8514 4.9797 6.92414 4.94995 6.99964 4.95078C7.07513 4.95161 7.14724 4.98295 7.20023 5.03797L12.9243 10.9125C12.9758 10.9661 13.0455 10.9974 13.1189 10.9998C13.1923 11.0023 13.2638 10.9758 13.3186 10.9258Z" fill="#464646"/>
</svg>
